# xmcd
#
# Track frame offsets: 
#        150
#        22945
#        43742
#        73735
#        93990
#        114252
#        132535
#        157177
#        178732
#        191740
#
# Disc length: 2939 seconds
#
# Revision: 1
# Processed by: cddbd v1.4PL0 Copyright (c) Steve Scherf et al.
# Submitted via: ExactAudioCopy v0.90b2
#
DISCID=8b0b790a
DTITLE=TRF - Brand New Tomorrow
DYEAR=1900
DGENRE=JPOP
TTITLE0=BRAND NEW TOMORROW
TTITLE1=ALL YOU NEED IS LOVE
TTITLE2=Xmas dance wiz U[HAPPY NEW MIX]
TTITLE3=Happening Here
TTITLE4=Hold the Line
TTITLE5=Silver and Gold dance[TK KC]
TTITLE6=teens
TTITLE7=Winter Groove '96
TTITLE8=R R,Who? "t" KOO-L
TTITLE9=HOT WINTER NIGHT -samuiyorudakara
EXTD=
EXTT0=
EXTT1=
EXTT2=
EXTT3=
EXTT4=
EXTT5=
EXTT6=
EXTT7=
EXTT8=
EXTT9=
PLAYORDER=
